<?xml version="1.0" standalone="no"?>
<!DOCTYPE svg PUBLIC "-//W3C//DTD SVG 20010904//EN"
 "http://www.w3.org/TR/2001/REC-SVG-20010904/DTD/svg10.dtd">
<svg version="1.0" xmlns="http://www.w3.org/2000/svg"
 width="600.000000pt" height="100.000000pt" viewBox="0 0 600.000000 100.000000"
 preserveAspectRatio="xMidYMid meet">

<g transform="translate(0.000000,100.000000) scale(0.100000,-0.100000)"
fill="#000000" stroke="none">
<path d="M2860 525 c0 -318 0 -325 20 -325 20 0 20 7 20 325 0 318 0 325 -20
325 -20 0 -20 -7 -20 -325z"/>
<path d="M4211 816 c-49 -18 -111 -74 -132 -120 -25 -55 -25 -157 0 -212 35
-78 126 -134 218 -134 43 0 140 26 161 42 8 7 12 44 12 119 l0 109 -80 0 c-73
0 -80 -2 -80 -20 0 -18 7 -20 55 -20 l55 0 0 -80 c0 -78 -1 -81 -27 -91 -74
-30 -163 -20 -218 23 -86 67 -91 236 -8 310 56 51 144 61 216 24 41 -20 48
-21 59 -8 10 12 8 18 -11 33 -46 38 -152 50 -220 25z"/>
<path d="M5161 816 c-49 -18 -111 -74 -132 -120 -25 -55 -25 -157 0 -212 35
-78 126 -134 218 -134 43 0 140 26 161 42 8 7 12 44 12 119 l0 109 -80 0 c-73
0 -80 -2 -80 -20 0 -18 7 -20 55 -20 l55 0 0 -80 c0 -78 -1 -81 -27 -91 -74
-30 -163 -20 -218 23 -86 67 -91 236 -8 310 56 51 144 61 216 24 41 -20 48
-21 59 -8 10 12 8 18 -11 33 -46 38 -152 50 -220 25z"/>
<path d="M141 808 c0 -7 37 -110 83 -228 111 -292 104 -292 213 -8 45 117 85
221 89 231 5 13 1 17 -19 17 -23 0 -30 -14 -97 -190 -40 -104 -76 -188 -80
-185 -3 2 -38 87 -75 189 -62 167 -72 186 -92 186 -13 0 -23 -6 -22 -12z"/>
<path d="M777 813 c-4 -3 -7 -107 -7 -230 l0 -223 25 0 25 0 0 230 c0 216 -1
230 -18 230 -10 0 -22 -3 -25 -7z"/>
<path d="M1130 590 c0 -223 1 -230 20 -230 19 0 20 7 20 105 l0 105 43 0 42
-1 60 -102 c51 -85 65 -103 88 -105 15 -2 27 -1 27 2 0 4 -25 46 -55 95 -73
118 -72 114 -30 130 69 25 98 119 53 176 -32 41 -76 55 -178 55 l-90 0 0 -230z
m217 156 c30 -35 29 -71 -2 -101 -21 -22 -33 -25 -100 -25 l-75 0 0 73 c0 41
3 77 8 81 4 5 38 6 76 3 60 -4 73 -8 93 -31z"/>
<path d="M1640 800 c0 -18 7 -20 75 -20 l75 0 0 -210 0 -210 25 0 25 0 0 210
0 210 75 0 c68 0 75 2 75 20 0 19 -7 20 -175 20 -168 0 -175 -1 -175 -20z"/>
<path d="M2240 647 c0 -162 2 -177 23 -217 32 -60 75 -82 154 -78 72 4 106 24
134 78 17 30 19 59 19 212 0 171 -1 178 -20 178 -19 0 -20 -7 -20 -152 0 -168
-8 -213 -44 -247 -49 -46 -146 -34 -178 22 -9 14 -15 82 -18 197 -5 172 -5
175 -27 178 l-23 3 0 -174z"/>
<path d="M3200 590 l0 -230 145 0 c138 0 145 1 145 20 0 19 -7 20 -125 20
l-125 0 0 90 0 90 110 0 c103 0 110 1 110 20 0 19 -7 20 -110 20 l-110 0 0 80
0 80 120 0 c113 0 120 1 120 20 0 19 -7 20 -140 20 l-140 0 0 -230z"/>
<path d="M3580 590 l0 -230 25 0 25 0 2 194 3 194 135 -194 c120 -174 137
-194 162 -194 l28 0 0 230 c0 223 -1 230 -20 230 -19 0 -20 -8 -22 -197 l-3
-198 -138 198 c-126 179 -142 197 -168 197 l-29 0 0 -230z"/>
<path d="M4717 788 c-8 -18 -38 -87 -67 -153 -29 -66 -67 -155 -86 -197 l-33
-78 25 0 c21 0 29 10 51 60 l26 61 120 -3 121 -3 22 -55 c18 -45 27 -56 48
-58 14 -2 26 -2 26 1 0 2 -44 105 -98 228 -81 186 -101 225 -119 227 -17 3
-26 -5 -36 -30z m87 -146 c25 -62 46 -115 46 -117 0 -3 -45 -5 -100 -5 -55 0
-100 1 -100 3 0 1 16 41 36 87 20 47 42 100 50 119 8 19 16 32 18 30 2 -2 25
-55 50 -117z"/>
<path d="M5540 590 l0 -230 145 0 c138 0 145 1 145 20 0 19 -7 20 -120 20
l-120 0 0 90 0 90 110 0 c103 0 110 1 110 20 0 19 -7 20 -110 20 l-110 0 0 80
0 80 120 0 c113 0 120 1 120 20 0 19 -7 20 -145 20 l-145 0 0 -230z"/>
</g>
</svg>
