<?xml version="1.0" standalone="no"?>
<!DOCTYPE svg PUBLIC "-//W3C//DTD SVG 20010904//EN"
 "http://www.w3.org/TR/2001/REC-SVG-20010904/DTD/svg10.dtd">
<svg version="1.0" xmlns="http://www.w3.org/2000/svg"
 width="420.000000pt" height="150.000000pt" viewBox="0 0 420.000000 150.000000"
 preserveAspectRatio="xMidYMid meet">

<g transform="translate(0.000000,150.000000) scale(0.100000,-0.100000)"
fill="#fb0202" stroke="none">
<path d="M1986 1249 c-55 -43 -21 -139 50 -139 81 0 110 97 45 147 -24 19 -65
15 -95 -8z"/>
<path d="M2806 1249 c-20 -16 -26 -29 -26 -59 0 -73 85 -106 137 -54 21 21 24
32 19 62 -10 67 -76 93 -130 51z"/>
<path d="M1510 1090 l0 -139 -36 24 c-97 66 -252 37 -333 -62 -113 -137 -58
-392 98 -455 80 -33 181 -25 238 17 l33 26 0 -25 c0 -25 2 -26 60 -26 l60 0 0
390 0 390 -60 0 -60 0 0 -140z m-84 -209 c115 -52 121 -244 10 -312 -40 -25
-112 -25 -152 0 -78 48 -105 173 -55 255 25 40 86 76 131 76 14 0 43 -9 66
-19z"/>
<path d="M3235 1017 c-136 -45 -207 -140 -207 -277 0 -166 118 -283 287 -284
58 0 81 5 128 28 63 30 62 28 31 102 l-14 33 -42 -24 c-58 -34 -141 -34 -189
-2 -55 37 -79 81 -79 147 0 66 24 110 79 147 46 31 139 32 187 2 l33 -20 21
40 c11 22 20 46 20 54 0 22 -88 58 -154 62 -36 3 -77 0 -101 -8z"/>
<path d="M3742 1012 c-109 -39 -172 -138 -172 -272 0 -93 28 -167 82 -215 55
-50 101 -68 178 -69 82 -1 144 22 194 73 l37 38 -48 31 c-46 30 -48 31 -68 13
-34 -31 -61 -41 -112 -41 -57 0 -105 26 -128 69 -32 62 -35 61 185 61 l200 0
0 55 c0 191 -173 319 -348 257z m154 -108 c32 -15 74 -68 74 -93 0 -8 -42 -11
-140 -11 l-140 0 11 27 c30 79 117 114 195 77z"/>
<path d="M1978 695 l-3 -327 -24 -19 c-13 -11 -32 -17 -42 -14 -11 3 -27 7
-37 10 -15 4 -21 -5 -35 -47 -10 -33 -13 -56 -7 -62 5 -5 44 -11 87 -14 74 -4
81 -3 111 23 67 57 67 53 67 430 l0 340 -57 3 -57 3 -3 -326z"/>
<path d="M2210 832 c0 -225 10 -272 69 -325 96 -87 300 -68 368 34 l28 42 3
219 3 219 -58 -3 -58 -3 -5 -198 -5 -199 -28 -24 c-22 -18 -40 -24 -78 -24
-107 0 -119 27 -119 270 l0 180 -60 0 -60 0 0 -188z"/>
<path d="M2800 745 l0 -275 60 0 60 0 0 275 0 275 -60 0 -60 0 0 -275z"/>
<path d="M290 999 c-13 -6 -33 -17 -42 -26 -17 -15 -18 -15 -18 5 0 20 -5 22
-60 22 l-60 0 0 -275 0 -275 60 0 60 0 0 184 c0 174 1 185 23 217 19 28 30 35
64 37 23 2 51 -1 61 -7 16 -8 23 -2 49 44 l31 54 -39 15 c-44 18 -92 20 -129
5z"/>
<path d="M651 993 c-181 -66 -226 -359 -75 -492 75 -66 197 -83 291 -41 50 22
103 66 103 84 0 6 -20 24 -45 39 l-44 28 -23 -21 c-31 -29 -61 -40 -111 -40
-57 0 -104 31 -127 83 l-19 42 204 3 205 2 0 49 c0 106 -59 209 -144 253 -54
28 -156 33 -215 11z m164 -109 c35 -16 57 -42 69 -81 l7 -23 -141 0 -141 0 7
23 c26 83 117 120 199 81z"/>
</g>
</svg>
