<svg width="20" height="20" viewBox="0 0 20 20" fill="none" xmlns="http://www.w3.org/2000/svg">
<path d="M13.8 10.7548L13.4208 11.1323C13.4208 11.1323 12.5183 12.029 10.0558 9.58065C7.59332 7.13232 8.49582 6.23565 8.49582 6.23565L8.73415 5.99732C9.32332 5.41232 9.37915 4.47232 8.86498 3.78565L7.81498 2.38315C7.17832 1.53315 5.94915 1.42065 5.21998 2.14565L3.91165 3.44565C3.55082 3.80565 3.30915 4.27065 3.33832 4.78732C3.41332 6.10982 4.01165 8.95399 7.34832 12.2723C10.8875 15.7907 14.2083 15.9307 15.5658 15.804C15.9958 15.764 16.3692 15.5457 16.67 15.2457L17.8533 14.069C18.6533 13.2748 18.4283 11.9123 17.405 11.3565L15.8133 10.4907C15.1417 10.1257 14.325 10.2332 13.8 10.7548Z" fill="#B22222"/>
</svg>
